# xmcd CD database file
#
# Track frame offsets:
#	150
#	15558
#	35173
#	50811
#	69507
#	88400
#	107645
#	126288
#	144634
#	166799
#	185125
#	206173
#	225446
#	244916
#
# Disc length: 3487 seconds
#
# Revision: 0
# Processed by: cddbd v1.5.1PL2 Copyright (c) Steve Scherf et al.
# Submitted via: CDex 1.51
#
DISCID=d00d9d0e
DTITLE=Juan Luis Guerra - Grandes Existos
DYEAR=1900
DGENRE=Salsa
TTITLE0=Rosalia
TTITLE1=Visa para un sueno
TTITLE2=Burbujas de Amor
TTITLE3=Ojata que llueva cafe
TTITLE4=Frio frio
TTITLE5=Como abeja al panal
TTITLE6=La cosquillita
TTITLE7=A pedir su mano
TTITLE8=La bilirrubina
TTITLE9=Woman del callao
TTITLE10=Carta de Amor
TTITLE11=Bachata rosa
TTITLE12=Me enamoro de ella
TTITLE13=Guavaberry
EXTD=
EXTT0=
EXTT1=
EXTT2=
EXTT3=
EXTT4=
EXTT5=
EXTT6=
EXTT7=
EXTT8=
EXTT9=
EXTT10=
EXTT11=
EXTT12=
EXTT13=
PLAYORDER=
